<svg width="22" height="22" viewBox="0 0 22 22" fill="none" xmlns="http://www.w3.org/2000/svg">
<circle cx="11.4226" cy="10.7302" r="9.23846" fill="#34A853" stroke="white" stroke-width="2.67692"/>
<path fill-rule="evenodd" clip-rule="evenodd" d="M8.1251 7.66496H8.49116C8.55217 7.10008 9.04026 6.65625 9.63003 6.65625H13.189C13.7584 6.65625 14.2465 7.10008 14.3075 7.66496H14.6939C15.4464 7.66496 16.0768 8.29036 16.0768 9.03681V13.2936C16.0768 14.04 15.4464 14.6452 14.6939 14.6452H8.1251C7.35229 14.6452 6.74219 14.04 6.74219 13.2936V9.03681C6.74219 8.29036 7.35229 7.66496 8.1251 7.66496ZM11.3993 8.59298C12.8433 8.59298 14.0025 9.74291 14.0025 11.1551C14.0025 12.5875 12.8433 13.7374 11.3993 13.7374C9.97576 13.7374 8.81655 12.5875 8.81655 11.1551C8.81655 9.74291 9.97576 8.59298 11.3993 8.59298ZM8.1251 8.41141C8.47083 8.41141 8.73521 8.69385 8.73521 9.01663C8.73521 9.3596 8.47083 9.62186 8.1251 9.62186C7.79971 9.62186 7.53533 9.3596 7.53533 9.01663C7.53533 8.69385 7.79971 8.41141 8.1251 8.41141Z" fill="white"/>
</svg>
