<svg width="15" height="16" viewBox="0 0 15 16" fill="none" xmlns="http://www.w3.org/2000/svg">
<path d="M14.4387 15.4588C13.6904 16.1804 12.4776 16.1804 11.7309 15.4588L7.50082 10.7975L3.2707 15.4573C2.52234 16.1789 1.30963 16.1789 0.562867 15.4573C-0.185496 14.7358 -0.185496 13.5666 0.562867 12.8467L4.9637 8.00075L0.561275 3.15177C-0.187092 2.43027 -0.187092 1.26263 0.561275 0.541129C1.30963 -0.180377 2.52074 -0.180377 3.2691 0.541129L7.50082 5.204L11.7309 0.541129C12.4793 -0.180377 13.6904 -0.180377 14.4387 0.541129C15.1871 1.26263 15.1871 2.4318 14.4387 3.15177L10.0379 8.00075L14.4387 12.8467C15.1871 13.5682 15.1871 14.7373 14.4387 15.4588Z" fill="#2254D3"/>
</svg>
