<svg width="42" height="42" viewBox="0 0 42 42" fill="none" xmlns="http://www.w3.org/2000/svg">
<path d="M21 42C32.598 42 42 32.598 42 21C42 9.40202 32.598 0 21 0C9.40202 0 0 9.40202 0 21C0 32.598 9.40202 42 21 42Z" fill="white"/>
<path d="M21 41C32.0457 41 41 32.0457 41 21C41 9.9543 32.0457 1 21 1C9.9543 1 1 9.9543 1 21C1 32.0457 9.9543 41 21 41Z" fill="#34A853" stroke="#34A853" stroke-width="2"/>
<path d="M16.4915 26.7852L27.5365 15.0418" stroke="white" stroke-width="1.99975" stroke-linecap="round"/>
<path d="M12.6973 22.4629L16.4914 26.7851" stroke="white" stroke-width="1.99975" stroke-linecap="round"/>
</svg>
